# xmcd
# 
# Track frame offsets:
#     182
#     17682
#     40930
#     66342
#     83717
#     116857
#     142297
#     159462
#     181072
#     203780
#     221857
#     248212
# 
# Disc length: 3556
# 
# Revision: 3
# Processed by: cddbd v1.5.2PL0 Copyright (c) Steve Scherf et al.
# Submitted via: fre:ac v1.0.31
# 
DISCID=b10de20c
DTITLE=Yanni - Dare To Dream
DYEAR=1992
DGENRE=New Age
TTITLE0=Once Upon a Time
TTITLE1=A Love for Life
TTITLE2=Nice to Meet You
TTITLE3=So Long My Friend
TTITLE4=You Only Live Once
TTITLE5=To the One Who Knows
TTITLE6=Face in the Photograph
TTITLE7=Felitsa
TTITLE8=Desire
TTITLE9=Aria
TTITLE10=A Night to Remember
TTITLE11=In the Mirror
EXTD=YEAR: 1992
EXTT0=
EXTT1=
EXTT2=
EXTT3=
EXTT4=
EXTT5=
EXTT6=
EXTT7=
EXTT8=
EXTT9=
EXTT10=
EXTT11=
PLAYORDER=
